<mxfile host="app.diagrams.net" modified="2023-10-22T13:48:01.945Z" agent="Mozilla/5.0 (Windows NT 10.0; Win64; x64) AppleWebKit/537.36 (KHTML, like Gecko) Chrome/118.0.0.0 Safari/537.36" etag="zajgPHA9zofqOvjWrwaK" version="22.0.6" type="github">
  <diagram id="R2lEEEUBdFMjLlhIrx00" name="Page-1">
    <mxGraphModel dx="328" dy="167" grid="1" gridSize="10" guides="1" tooltips="1" connect="1" arrows="1" fold="1" page="1" pageScale="1" pageWidth="850" pageHeight="1100" math="0" shadow="0" extFonts="Permanent Marker^https://fonts.googleapis.com/css?family=Permanent+Marker">
      <root>
        <mxCell id="0" />
        <mxCell id="1" parent="0" />
        <mxCell id="ka0bjWdFBgohhTKAhfr_-1" value="STUDENT" style="whiteSpace=wrap;html=1;align=center;" vertex="1" parent="1">
          <mxGeometry x="125" y="600" width="100" height="40" as="geometry" />
        </mxCell>
        <mxCell id="ka0bjWdFBgohhTKAhfr_-2" value="name" style="ellipse;whiteSpace=wrap;html=1;align=center;" vertex="1" parent="1">
          <mxGeometry y="600" width="65" height="30" as="geometry" />
        </mxCell>
        <mxCell id="ka0bjWdFBgohhTKAhfr_-3" value="class" style="ellipse;whiteSpace=wrap;html=1;align=center;" vertex="1" parent="1">
          <mxGeometry y="550" width="65" height="30" as="geometry" />
        </mxCell>
        <mxCell id="ka0bjWdFBgohhTKAhfr_-4" value="roll_no" style="ellipse;whiteSpace=wrap;html=1;align=center;fontStyle=4;" vertex="1" parent="1">
          <mxGeometry y="650" width="65" height="30" as="geometry" />
        </mxCell>
        <mxCell id="ka0bjWdFBgohhTKAhfr_-7" value="" style="endArrow=none;html=1;rounded=0;entryX=1;entryY=0.5;entryDx=0;entryDy=0;exitX=0;exitY=0;exitDx=0;exitDy=0;" edge="1" parent="1" source="ka0bjWdFBgohhTKAhfr_-1" target="ka0bjWdFBgohhTKAhfr_-3">
          <mxGeometry width="50" height="50" relative="1" as="geometry">
            <mxPoint x="175" y="660" as="sourcePoint" />
            <mxPoint x="225" y="610" as="targetPoint" />
          </mxGeometry>
        </mxCell>
        <mxCell id="ka0bjWdFBgohhTKAhfr_-8" value="" style="endArrow=none;html=1;rounded=0;entryX=1;entryY=0.5;entryDx=0;entryDy=0;exitX=0;exitY=0.5;exitDx=0;exitDy=0;" edge="1" parent="1" source="ka0bjWdFBgohhTKAhfr_-1" target="ka0bjWdFBgohhTKAhfr_-2">
          <mxGeometry width="50" height="50" relative="1" as="geometry">
            <mxPoint x="200" y="570" as="sourcePoint" />
            <mxPoint x="175" y="520" as="targetPoint" />
          </mxGeometry>
        </mxCell>
        <mxCell id="ka0bjWdFBgohhTKAhfr_-9" value="" style="endArrow=none;html=1;rounded=0;entryX=1;entryY=0.5;entryDx=0;entryDy=0;exitX=0;exitY=1;exitDx=0;exitDy=0;" edge="1" parent="1" source="ka0bjWdFBgohhTKAhfr_-1" target="ka0bjWdFBgohhTKAhfr_-4">
          <mxGeometry width="50" height="50" relative="1" as="geometry">
            <mxPoint x="187.5" y="570" as="sourcePoint" />
            <mxPoint x="162.5" y="520" as="targetPoint" />
          </mxGeometry>
        </mxCell>
      </root>
    </mxGraphModel>
  </diagram>
</mxfile>
